# xmcd
#
# Track frame offsets: 
#        150
#        20359
#        36268
#        50369
#        65914
#        81149
#        98409
#        109146
#        124719
#        140654
#        155561
#        170262
#
# Disc length: 2600 seconds
#
# Revision: 0
# Processed by: cddbd v1.5.2PL0 Copyright (c) Steve Scherf et al.
# Submitted via: ExactAudioCopyFreeDBPlugin 1.0
#
DISCID=9c0a260c
DTITLE=Phil Madeira - P.M.
DYEAR=2013
DGENRE=Country
TTITLE0=God On The Rocks
TTITLE1=Sneaky Yet
TTITLE2=Come On Out
TTITLE3=Bad Sense Of Direction
TTITLE4=Waiting On A Slow Train
TTITLE5=Let You Down
TTITLE6=I Don't Want Your Love
TTITLE7=An Old Song
TTITLE8=Jagged Heart
TTITLE9=Light Of Your Love
TTITLE10=Until Then
TTITLE11=Lonesome Owl
EXTD=
EXTT0=
EXTT1=
EXTT2=
EXTT3=
EXTT4=
EXTT5=
EXTT6=
EXTT7=
EXTT8=
EXTT9=
EXTT10=
EXTT11=
PLAYORDER=
